# xmcd
#
# Track frame offsets: 
#        150
#        13652
#        32943
#        57043
#        70061
#        92422
#        117111
#        135061
#        160830
#        177420
#        193713
#        213638
#        236705
#
# Disc length: 3394 seconds
#
# Revision: 3
# Processed by: cddbd v1.5.2PL0 Copyright (c) Steve Scherf et al.
# Submitted via: ExactAudioCopy v0.95b4
#
DISCID=a90d400d
DTITLE=The Hellecasters - Essential Listening Volume 1
DYEAR=2002
DGENRE=Instrumental Rock
TTITLE0=Disintonation
TTITLE1=Valley Of The Pharaohs
TTITLE2=Ghosts Of 42nd Street
TTITLE3=Little Miss Strange
TTITLE4=Back On Terra Firma
TTITLE5=Riddler's Journey
TTITLE6=Danger Man
TTITLE7=Le Journ'ee Des Tziganes
TTITLE8=Mr. Natural
TTITLE9=Axe To Grind
TTITLE10=Deiter's Lounge
TTITLE11=Almost Dawn
TTITLE12=Bucket Of Fish
EXTD=ID3G: 0
EXTT0=
EXTT1=
EXTT2=
EXTT3=
EXTT4=
EXTT5=
EXTT6=
EXTT7=
EXTT8=
EXTT9=
EXTT10=
EXTT11=
EXTT12=
PLAYORDER=
